<svg width="48" height="48" viewBox="0 0 48 48" fill="none" xmlns="http://www.w3.org/2000/svg">
<path d="M19.862 2.31587V0.827586C19.862 0.608096 19.7748 0.397597 19.6196 0.242394C19.4644 0.0871918 19.2539 0 19.0344 0H9.10342C8.88393 0 8.67343 0.0871918 8.51822 0.242394C8.36302 0.397597 8.27583 0.608096 8.27583 0.827586V2.95959C8.27539 4.13003 7.96996 5.28015 7.38965 6.2966L6.06988 8.60639C5.34668 9.87293 4.96604 11.3061 4.96549 12.7645V16.5517C4.96313 16.8761 5.0259 17.1976 5.15008 17.4972C5.27426 17.7969 5.45732 18.0686 5.68842 18.2962C5.91769 18.5309 6.19179 18.7173 6.49443 18.8441C6.79708 18.9709 7.12212 19.0356 7.45026 19.0345C7.52139 19.0345 7.59291 19.0316 7.66444 19.0256C7.87395 19.0046 8.07963 18.9552 8.27583 18.8787V19.8621C8.27891 20.5196 8.54148 21.1493 9.00642 21.6142C9.47136 22.0792 10.1011 22.3417 10.7586 22.3448C11.1855 22.3421 11.6043 22.228 11.9735 22.0139C12.0691 22.1665 12.1818 22.3076 12.3095 22.4345C12.5381 22.6695 12.8117 22.856 13.114 22.9828C13.4163 23.1096 13.7411 23.1741 14.0689 23.1724C14.4873 23.1716 14.8987 23.0648 15.2647 22.8621C15.6307 22.6593 15.9393 22.3672 16.1619 22.0129C16.5316 22.2283 16.9514 22.3428 17.3793 22.3448C18.0375 22.3441 18.6686 22.0823 19.1341 21.6168C19.5995 21.1514 19.8613 20.5203 19.862 19.8621V15.5782C20.1963 15.6972 20.5521 15.744 20.9058 15.7152C21.535 15.6455 22.1156 15.3439 22.5346 14.8694C22.9537 14.3949 23.181 13.7814 23.1724 13.1484V11.7531C23.17 9.85047 22.5225 8.00485 21.3358 6.51768C20.3835 5.32403 19.864 3.84283 19.862 2.31587ZM21.5172 13.1484C21.5252 13.3665 21.4534 13.5801 21.3151 13.749C21.1769 13.9178 20.9818 14.0305 20.7664 14.0657C20.652 14.0748 20.537 14.0604 20.4285 14.0232C20.3199 13.9861 20.2202 13.927 20.1354 13.8497C20.0506 13.7725 19.9826 13.6786 19.9356 13.5739C19.8885 13.4693 19.8635 13.3561 19.862 13.2414V10.7586C19.862 10.5391 19.7748 10.3286 19.6196 10.1734C19.4644 10.0182 19.2539 9.93103 19.0344 9.93103C18.815 9.93103 18.6045 10.0182 18.4493 10.1734C18.294 10.3286 18.2069 10.5391 18.2069 10.7586V19.8621C18.2066 20.0815 18.1193 20.2918 17.9641 20.4469C17.809 20.6021 17.5987 20.6894 17.3793 20.6896C17.269 20.69 17.1598 20.6677 17.0585 20.6242C16.9572 20.5807 16.8658 20.5169 16.7901 20.4367C16.7137 20.3619 16.6532 20.2724 16.6123 20.1737C16.5713 20.075 16.5507 19.969 16.5517 19.8621V12.4138C16.5517 12.1943 16.4645 11.9838 16.3093 11.8286C16.1541 11.6734 15.9436 11.5862 15.7241 11.5862C15.5046 11.5862 15.2941 11.6734 15.1389 11.8286C14.9837 11.9838 14.8965 12.1943 14.8965 12.4138V20.6896C14.8962 20.909 14.8089 21.1194 14.6538 21.2745C14.4987 21.4297 14.2883 21.5169 14.0689 21.5172C13.9587 21.5175 13.8495 21.4953 13.7482 21.4518C13.6468 21.4082 13.5555 21.3444 13.4798 21.2643C13.4034 21.1895 13.3429 21.1 13.3019 21.0013C13.2609 20.9025 13.2403 20.7965 13.2413 20.6896V12.4138C13.2413 12.1943 13.1542 11.9838 12.999 11.8286C12.8437 11.6734 12.6332 11.5862 12.4138 11.5862C12.1943 11.5862 11.9838 11.6734 11.8286 11.8286C11.6734 11.9838 11.5862 12.1943 11.5862 12.4138V19.8621C11.5859 20.0815 11.4986 20.2918 11.3435 20.4469C11.1883 20.6021 10.978 20.6894 10.7586 20.6896C10.6483 20.69 10.5391 20.6677 10.4378 20.6242C10.3365 20.5807 10.2451 20.5169 10.1694 20.4367C10.093 20.3619 10.0325 20.2724 9.99156 20.1737C9.95059 20.075 9.93 19.969 9.931 19.8621V12.4138C9.931 12.1943 9.84381 11.9838 9.68861 11.8286C9.5334 11.6734 9.32291 11.5862 9.10342 11.5862C8.88393 11.5862 8.67343 11.6734 8.51822 11.8286C8.36302 11.9838 8.27583 12.1943 8.27583 12.4138V16.4588C8.28384 16.6769 8.21199 16.8904 8.07375 17.0593C7.93552 17.2282 7.7404 17.3408 7.52502 17.3761C7.41066 17.3852 7.29564 17.3707 7.18709 17.3336C7.07855 17.2964 6.97879 17.2374 6.894 17.1601C6.80922 17.0828 6.7412 16.9889 6.69418 16.8843C6.64717 16.7796 6.62214 16.6664 6.62066 16.5517V12.7645C6.6211 11.5941 6.92653 10.444 7.50684 9.42752L8.82661 7.11773C9.54981 5.8512 9.93044 4.41805 9.931 2.95959V1.65517H18.2069V2.31587C18.2093 4.21852 18.8567 6.06414 20.0435 7.55131C20.9957 8.74495 21.5152 10.2261 21.5172 11.7531V13.1484Z" fill="black"/>
<path d="M2.31587 28.138H0.827586C0.608096 28.138 0.397597 28.2252 0.242394 28.3804C0.0871918 28.5356 0 28.7461 0 28.9656V38.8966C0 39.1161 0.0871918 39.3266 0.242394 39.4818C0.397597 39.637 0.608096 39.7242 0.827586 39.7242H2.95959C4.13003 39.7246 5.28015 40.03 6.2966 40.6104L8.60639 41.9301C9.87293 42.6533 11.3061 43.034 12.7645 43.0345H16.5517C16.8761 43.0369 17.1976 42.9741 17.4972 42.8499C17.7969 42.7257 18.0686 42.5427 18.2962 42.3116C18.5309 42.0823 18.7173 41.8082 18.8441 41.5056C18.9709 41.2029 19.0356 40.8779 19.0345 40.5497C19.0345 40.4786 19.0316 40.4071 19.0256 40.3356C19.0046 40.1261 18.9552 39.9204 18.8787 39.7242H19.8621C20.5196 39.7211 21.1493 39.4585 21.6142 38.9936C22.0792 38.5286 22.3417 37.8989 22.3448 37.2414C22.3421 36.8145 22.228 36.3957 22.0139 36.0265C22.1665 35.9309 22.3076 35.8182 22.4345 35.6905C22.6695 35.4619 22.856 35.1883 22.9828 34.886C23.1096 34.5837 23.1741 34.2589 23.1724 33.9311C23.1716 33.5127 23.0648 33.1013 22.8621 32.7353C22.6593 32.3693 22.3672 32.0607 22.0129 31.8381C22.2283 31.4684 22.3428 31.0486 22.3448 30.6207C22.3441 29.9625 22.0823 29.3314 21.6168 28.8659C21.1514 28.4005 20.5203 28.1387 19.8621 28.138H15.5782C15.6972 27.8037 15.744 27.4479 15.7152 27.0942C15.6455 26.465 15.3439 25.8844 14.8694 25.4654C14.3949 25.0463 13.7814 24.819 13.1484 24.8276H11.7531C9.85047 24.83 8.00485 25.4775 6.51768 26.6642C5.32403 27.6165 3.84283 28.136 2.31587 28.138ZM13.1484 26.4828C13.3665 26.4748 13.5801 26.5466 13.749 26.6849C13.9178 26.8231 14.0305 27.0182 14.0657 27.2336C14.0748 27.348 14.0604 27.463 14.0232 27.5715C13.9861 27.6801 13.927 27.7798 13.8497 27.8646C13.7725 27.9494 13.6786 28.0174 13.5739 28.0644C13.4693 28.1115 13.3561 28.1365 13.2414 28.138H10.7586C10.5391 28.138 10.3286 28.2252 10.1734 28.3804C10.0182 28.5356 9.93103 28.7461 9.93103 28.9656C9.93103 29.185 10.0182 29.3955 10.1734 29.5507C10.3286 29.706 10.5391 29.7931 10.7586 29.7931H19.8621C20.0815 29.7934 20.2918 29.8807 20.4469 30.0359C20.6021 30.191 20.6894 30.4013 20.6896 30.6207C20.69 30.731 20.6677 30.8402 20.6242 30.9415C20.5807 31.0428 20.5169 31.1342 20.4367 31.2099C20.3619 31.2863 20.2724 31.3468 20.1737 31.3878C20.075 31.4287 19.969 31.4493 19.8621 31.4483H12.4138C12.1943 31.4483 11.9838 31.5355 11.8286 31.6907C11.6734 31.8459 11.5862 32.0564 11.5862 32.2759C11.5862 32.4954 11.6734 32.7059 11.8286 32.8611C11.9838 33.0163 12.1943 33.1035 12.4138 33.1035H20.6896C20.909 33.1038 21.1194 33.1911 21.2745 33.3462C21.4297 33.5013 21.5169 33.7117 21.5172 33.9311C21.5175 34.0413 21.4953 34.1505 21.4518 34.2518C21.4082 34.3532 21.3444 34.4445 21.2643 34.5202C21.1895 34.5966 21.1 34.6571 21.0013 34.6981C20.9025 34.7391 20.7965 34.7597 20.6896 34.7587H12.4138C12.1943 34.7587 11.9838 34.8458 11.8286 35.0011C11.6734 35.1563 11.5862 35.3668 11.5862 35.5862C11.5862 35.8057 11.6734 36.0162 11.8286 36.1714C11.9838 36.3266 12.1943 36.4138 12.4138 36.4138H19.8621C20.0815 36.4141 20.2918 36.5014 20.4469 36.6565C20.6021 36.8117 20.6894 37.022 20.6896 37.2414C20.69 37.3517 20.6677 37.4609 20.6242 37.5622C20.5807 37.6635 20.5169 37.7549 20.4367 37.8306C20.3619 37.907 20.2724 37.9675 20.1737 38.0084C20.075 38.0494 19.969 38.07 19.8621 38.069H12.4138C12.1943 38.069 11.9838 38.1562 11.8286 38.3114C11.6734 38.4666 11.5862 38.6771 11.5862 38.8966C11.5862 39.1161 11.6734 39.3266 11.8286 39.4818C11.9838 39.637 12.1943 39.7242 12.4138 39.7242H16.4588C16.6769 39.7162 16.8904 39.788 17.0593 39.9262C17.2282 40.0645 17.3408 40.2596 17.3761 40.475C17.3852 40.5893 17.3707 40.7044 17.3336 40.8129C17.2964 40.9215 17.2374 41.0212 17.1601 41.106C17.0828 41.1908 16.9889 41.2588 16.8843 41.3058C16.7796 41.3528 16.6664 41.3779 16.5517 41.3793H12.7645C11.5941 41.3789 10.444 41.0735 9.42752 40.4932L7.11773 39.1734C5.8512 38.4502 4.41805 38.0696 2.95959 38.069H1.65517V29.7931H2.31587C4.21852 29.7908 6.06414 29.1433 7.55131 27.9565C8.74495 27.0043 10.2261 26.4848 11.7531 26.4828H13.1484Z" fill="black"/>
<path d="M28.1379 45.6841V47.1724C28.1379 47.3918 28.2251 47.6023 28.3803 47.7576C28.5355 47.9128 28.746 47.9999 28.9655 47.9999H38.8965C39.116 47.9999 39.3265 47.9128 39.4817 47.7576C39.6369 47.6023 39.7241 47.3918 39.7241 47.1724V45.0404C39.7246 43.8699 40.03 42.7198 40.6103 41.7033L41.9301 39.3936C42.6533 38.127 43.0339 36.6939 43.0345 35.2354V31.4482C43.0368 31.1239 42.974 30.8023 42.8499 30.5027C42.7257 30.203 42.5426 29.9314 42.3115 29.7038C42.0822 29.469 41.8082 29.2827 41.5055 29.1559C41.2029 29.029 40.8778 28.9643 40.5497 28.9655C40.4786 28.9655 40.407 28.9683 40.3355 28.9744C40.126 28.9954 39.9203 29.0448 39.7241 29.1212V28.1379C39.721 27.4804 39.4585 26.8507 38.9935 26.3857C38.5286 25.9208 37.8989 25.6582 37.2414 25.6551C36.8145 25.6578 36.3957 25.7719 36.0264 25.9861C35.9309 25.8335 35.8182 25.6923 35.6904 25.5654C35.4619 25.3304 35.1883 25.1439 34.8859 25.0171C34.5836 24.8903 34.2588 24.8259 33.931 24.8275C33.5126 24.8284 33.1012 24.9351 32.7353 25.1379C32.3693 25.3406 32.0606 25.6328 31.838 25.987C31.4684 25.7716 31.0485 25.6572 30.6207 25.6551C29.9624 25.6559 29.3313 25.9177 28.8659 26.3831C28.4004 26.8486 28.1386 27.4796 28.1379 28.1379V32.4217C27.8036 32.3027 27.4478 32.256 27.0941 32.2847C26.465 32.3545 25.8843 32.656 25.4653 33.1305C25.0463 33.605 24.8189 34.2185 24.8276 34.8515V36.2468C24.83 38.1495 25.4774 39.9951 26.6642 41.4823C27.6165 42.6759 28.136 44.1571 28.1379 45.6841ZM26.4827 34.8515C26.4747 34.6334 26.5466 34.4199 26.6848 34.251C26.8231 34.0821 27.0182 33.9695 27.2336 33.9342C27.3479 33.9251 27.4629 33.9396 27.5715 33.9767C27.68 34.0139 27.7798 34.0729 27.8646 34.1502C27.9494 34.2275 28.0174 34.3214 28.0644 34.426C28.1114 34.5307 28.1364 34.6439 28.1379 34.7586V37.2413C28.1379 37.4608 28.2251 37.6713 28.3803 37.8265C28.5355 37.9817 28.746 38.0689 28.9655 38.0689C29.185 38.0689 29.3955 37.9817 29.5507 37.8265C29.7059 37.6713 29.7931 37.4608 29.7931 37.2413V28.1379C29.7934 27.9185 29.8807 27.7082 30.0358 27.553C30.1909 27.3979 30.4013 27.3106 30.6207 27.3103C30.7309 27.31 30.8401 27.3323 30.9414 27.3758C31.0428 27.4193 31.1341 27.4831 31.2098 27.5633C31.2862 27.6381 31.3467 27.7275 31.3877 27.8262C31.4287 27.925 31.4493 28.031 31.4483 28.1379V35.5862C31.4483 35.8056 31.5354 36.0161 31.6906 36.1714C31.8458 36.3266 32.0563 36.4137 32.2758 36.4137C32.4953 36.4137 32.7058 36.3266 32.861 36.1714C33.0162 36.0161 33.1034 35.8056 33.1034 35.5862V27.3103C33.1037 27.0909 33.191 26.8806 33.3461 26.7254C33.5013 26.5703 33.7116 26.483 33.931 26.4827C34.0413 26.4824 34.1505 26.5047 34.2518 26.5482C34.3531 26.5917 34.4445 26.6555 34.5202 26.7357C34.5966 26.8105 34.6571 26.8999 34.698 26.9987C34.739 27.0974 34.7596 27.2034 34.7586 27.3103V35.5862C34.7586 35.8056 34.8458 36.0161 35.001 36.1714C35.1562 36.3266 35.3667 36.4137 35.5862 36.4137C35.8057 36.4137 36.0162 36.3266 36.1714 36.1714C36.3266 36.0161 36.4138 35.8056 36.4138 35.5862V28.1379C36.4141 27.9185 36.5013 27.7082 36.6565 27.553C36.8116 27.3979 37.022 27.3106 37.2414 27.3103C37.3516 27.31 37.4608 27.3323 37.5621 27.3758C37.6635 27.4193 37.7548 27.4831 37.8305 27.5633C37.9069 27.6381 37.9674 27.7275 38.0084 27.8262C38.0493 27.925 38.0699 28.031 38.0689 28.1379V35.5862C38.0689 35.8056 38.1561 36.0161 38.3113 36.1714C38.4665 36.3266 38.677 36.4137 38.8965 36.4137C39.116 36.4137 39.3265 36.3266 39.4817 36.1714C39.6369 36.0161 39.7241 35.8056 39.7241 35.5862V31.5412C39.7161 31.3231 39.7879 31.1095 39.9262 30.9407C40.0644 30.7718 40.2595 30.6591 40.4749 30.6239C40.5893 30.6148 40.7043 30.6292 40.8128 30.6664C40.9214 30.7035 41.0211 30.7626 41.1059 30.8399C41.1907 30.9171 41.2587 31.011 41.3058 31.1157C41.3528 31.2203 41.3778 31.3335 41.3793 31.4482V35.2354C41.3788 36.4058 41.0734 37.556 40.4931 38.5724L39.1733 40.8822C38.4501 42.1487 38.0695 43.5819 38.0689 45.0404V46.3448H29.7931V45.6841C29.7907 43.7814 29.1432 41.9358 27.9565 40.4486C27.0042 39.255 26.4847 37.7738 26.4827 36.2469V34.8515Z" fill="black"/>
<path d="M45.6841 19.8621H47.1724C47.3919 19.8621 47.6024 19.7749 47.7576 19.6197C47.9128 19.4645 48 19.254 48 19.0345V9.10345C48 8.88396 47.9128 8.67346 47.7576 8.51826C47.6024 8.36305 47.3919 8.27586 47.1724 8.27586H45.0404C43.8699 8.27542 42.7198 7.96999 41.7034 7.38968L39.3936 6.06991C38.127 5.34671 36.6939 4.96608 35.2354 4.96552H31.4483C31.1239 4.96316 30.8024 5.02593 30.5027 5.15011C30.2031 5.27429 29.9314 5.45735 29.7038 5.68845C29.469 5.91772 29.2827 6.19182 29.1559 6.49447C29.0291 6.79711 28.9643 7.12215 28.9655 7.45029C28.9655 7.52142 28.9683 7.59294 28.9744 7.66447C28.9954 7.87398 29.0448 8.07966 29.1212 8.27586H28.1379C27.4804 8.27894 26.8507 8.54151 26.3858 9.00645C25.9208 9.47139 25.6582 10.1011 25.6552 10.7586C25.6579 11.1855 25.7719 11.6043 25.9861 11.9736C25.8335 12.0691 25.6924 12.1818 25.5655 12.3095C25.3304 12.5381 25.144 12.8117 25.0172 13.114C24.8904 13.4163 24.8259 13.7411 24.8276 14.069C24.8284 14.4874 24.9351 14.8987 25.1379 15.2647C25.3407 15.6307 25.6328 15.9394 25.9871 16.1619C25.7717 16.5316 25.6572 16.9514 25.6552 17.3793C25.6559 18.0376 25.9177 18.6686 26.3831 19.1341C26.8486 19.5995 27.4797 19.8613 28.1379 19.8621H32.4218C32.3027 20.1964 32.256 20.5521 32.2847 20.9058C32.3545 21.535 32.656 22.1157 33.1305 22.5347C33.6051 22.9537 34.2186 23.181 34.8515 23.1724H36.2469C38.1495 23.17 39.9951 22.5226 41.4823 21.3358C42.6759 20.3835 44.1571 19.864 45.6841 19.8621ZM34.8515 21.5172C34.6334 21.5252 34.4199 21.4534 34.251 21.3152C34.0821 21.1769 33.9695 20.9818 33.9342 20.7664C33.9251 20.6521 33.9396 20.537 33.9767 20.4285C34.0139 20.3199 34.0729 20.2202 34.1502 20.1354C34.2275 20.0506 34.3214 19.9826 34.426 19.9356C34.5307 19.8886 34.6439 19.8635 34.7586 19.8621H37.2414C37.4609 19.8621 37.6714 19.7749 37.8266 19.6197C37.9818 19.4645 38.0689 19.254 38.0689 19.0345C38.0689 18.815 37.9818 18.6045 37.8266 18.4493C37.6714 18.2941 37.4609 18.2069 37.2414 18.2069H28.1379C27.9185 18.2066 27.7082 18.1193 27.553 17.9642C27.3979 17.809 27.3106 17.5987 27.3103 17.3793C27.31 17.269 27.3323 17.1599 27.3758 17.0585C27.4193 16.9572 27.4831 16.8659 27.5633 16.7901C27.6381 16.7137 27.7275 16.6533 27.8263 16.6123C27.925 16.5713 28.031 16.5507 28.1379 16.5517H35.5862C35.8057 16.5517 36.0162 16.4645 36.1714 16.3093C36.3266 16.1541 36.4138 15.9436 36.4138 15.7241C36.4138 15.5046 36.3266 15.2941 36.1714 15.1389C36.0162 14.9837 35.8057 14.8965 35.5862 14.8965H27.3103C27.0909 14.8963 26.8806 14.809 26.7255 14.6538C26.5703 14.4987 26.483 14.2884 26.4827 14.069C26.4824 13.9587 26.5047 13.8495 26.5482 13.7482C26.5917 13.6469 26.6555 13.5555 26.7357 13.4798C26.8105 13.4034 26.8999 13.3429 26.9987 13.3019C27.0974 13.261 27.2034 13.2404 27.3103 13.2414H35.5862C35.8057 13.2414 36.0162 13.1542 36.1714 12.999C36.3266 12.8438 36.4138 12.6333 36.4138 12.4138C36.4138 12.1943 36.3266 11.9838 36.1714 11.8286C36.0162 11.6734 35.8057 11.5862 35.5862 11.5862H28.1379C27.9185 11.5859 27.7082 11.4986 27.553 11.3435C27.3979 11.1884 27.3106 10.978 27.3103 10.7586C27.31 10.6483 27.3323 10.5392 27.3758 10.4378C27.4193 10.3365 27.4831 10.2452 27.5633 10.1695C27.6381 10.0931 27.7275 10.0326 27.8263 9.9916C27.925 9.95063 28.031 9.93003 28.1379 9.93103H35.5862C35.8057 9.93103 36.0162 9.84384 36.1714 9.68864C36.3266 9.53344 36.4138 9.32294 36.4138 9.10345C36.4138 8.88396 36.3266 8.67346 36.1714 8.51826C36.0162 8.36305 35.8057 8.27586 35.5862 8.27586H31.5412C31.3231 8.28387 31.1096 8.21202 30.9407 8.07379C30.7718 7.93555 30.6592 7.74043 30.6239 7.52505C30.6148 7.41069 30.6292 7.29567 30.6664 7.18712C30.7036 7.07858 30.7626 6.97882 30.8399 6.89403C30.9172 6.80925 31.0111 6.74123 31.1157 6.69421C31.2204 6.6472 31.3335 6.62217 31.4483 6.62069H35.2354C36.4059 6.62113 37.556 6.92656 38.5724 7.50687L40.8822 8.82664C42.1488 9.54984 43.5819 9.93048 45.0404 9.93103H46.3448V18.2069H45.6841C43.7815 18.2093 41.9358 18.8567 40.4487 20.0435C39.255 20.9958 37.7738 21.5153 36.2469 21.5172H34.8515Z" fill="black"/>
</svg>
