<svg width="49" height="49" viewBox="0 0 49 49" fill="none" xmlns="http://www.w3.org/2000/svg">
<path d="M34.4918 6.46716C35.0171 5.94187 35.6407 5.52519 36.327 5.2409C37.0133 4.95662 37.7489 4.8103 38.4918 4.8103C39.2347 4.8103 39.9703 4.95662 40.6566 5.2409C41.3429 5.52519 41.9665 5.94187 42.4918 6.46716C43.0171 6.99244 43.4338 7.61605 43.7181 8.30237C44.0023 8.98869 44.1487 9.72429 44.1487 10.4672C44.1487 11.21 44.0023 11.9456 43.7181 12.6319C43.4338 13.3183 43.0171 13.9419 42.4918 14.4672L15.4918 41.4672L4.4918 44.4672L7.4918 33.4672L34.4918 6.46716Z" stroke="black" stroke-width="2" stroke-linecap="round" stroke-linejoin="round"/>
</svg>
