<svg width="49" height="49" viewBox="0 0 49 49" fill="none" xmlns="http://www.w3.org/2000/svg">
<path d="M28.2854 4.93579H12.2854C11.2245 4.93579 10.2071 5.35722 9.45697 6.10736C8.70683 6.85751 8.2854 7.87493 8.2854 8.93579V40.9358C8.2854 41.9967 8.70683 43.0141 9.45697 43.7642C10.2071 44.5144 11.2245 44.9358 12.2854 44.9358H36.2854C37.3463 44.9358 38.3637 44.5144 39.1138 43.7642C39.864 43.0141 40.2854 41.9967 40.2854 40.9358V16.9358L28.2854 4.93579Z" stroke="black" stroke-width="2" stroke-linecap="round" stroke-linejoin="round"/>
<path d="M28.2854 4.93579V16.9358H40.2854" stroke="black" stroke-width="2" stroke-linecap="round" stroke-linejoin="round"/>
<path d="M32.2854 26.9358H16.2854" stroke="black" stroke-width="2" stroke-linecap="round" stroke-linejoin="round"/>
<path d="M32.2854 34.9358H16.2854" stroke="black" stroke-width="2" stroke-linecap="round" stroke-linejoin="round"/>
<path d="M20.2854 18.9358H18.2854H16.2854" stroke="black" stroke-width="2" stroke-linecap="round" stroke-linejoin="round"/>
</svg>
