<svg width="49" height="49" viewBox="0 0 49 49" fill="none" xmlns="http://www.w3.org/2000/svg">
<path d="M41.6884 7.75265C32.331 -1.60472 17.105 -1.60472 7.74694 7.75265C3.21445 12.2858 0.718002 18.3126 0.718002 24.7237C0.718002 31.1342 3.21445 37.1609 7.7476 41.6941C12.4263 46.3728 18.5721 48.7125 24.7187 48.7125C30.8652 48.7125 37.0104 46.3728 41.6891 41.6941C46.2216 37.1609 48.718 31.1342 48.718 24.7237C48.718 18.3126 46.2216 12.2858 41.6884 7.75265ZM40.2444 40.2501C31.6834 48.811 17.7532 48.811 9.19163 40.2501C5.04478 36.1026 2.76067 30.5884 2.76067 24.7237C2.76067 18.859 5.04478 13.3442 9.19163 9.19733C13.4728 4.9162 19.0941 2.77563 24.718 2.77563C30.34 2.77563 35.9646 4.91686 40.2444 9.19667C44.3919 13.3442 46.676 18.8583 46.676 24.723C46.676 30.5878 44.3919 36.1026 40.2444 40.2501ZM30.4187 24.2382C31.2125 23.4484 31.651 22.3946 31.651 21.2655C31.651 19.2499 30.1918 17.2106 27.3944 16.9645V15.531C27.3944 14.9668 26.9373 14.5097 26.373 14.5097C25.8088 14.5097 25.3517 14.9668 25.3517 15.531V16.9393H22.0516V15.533C22.0516 14.9688 21.5945 14.5117 21.0302 14.5117C20.466 14.5117 20.0089 14.9688 20.0089 15.533V16.9393H18.6026C18.0383 16.9393 17.5812 17.3964 17.5812 17.9607C17.5812 18.5249 18.0383 18.982 18.6026 18.982H20.0089V30.468H18.6026C18.0383 30.468 17.5812 30.9251 17.5812 31.4894C17.5812 32.0536 18.0383 32.5107 18.6026 32.5107H20.0089V33.917C20.0089 34.4813 20.466 34.9384 21.0302 34.9384C21.5945 34.9384 22.0516 34.4813 22.0516 33.917V32.5107H25.3517V33.915C25.3517 34.4793 25.8088 34.9364 26.373 34.9364C26.9373 34.9364 27.3944 34.4793 27.3944 33.915V32.5107H27.7853C29.5951 32.5107 30.6998 31.7507 31.3077 31.1137C32.0883 30.2954 32.5176 29.2006 32.5176 28.0305C32.5182 26.556 31.8012 25.0743 30.4187 24.2382ZM26.8195 18.9814C28.7464 18.9814 29.6084 20.1284 29.6084 21.2648C29.6084 22.4019 28.7458 23.5489 26.8195 23.5489H22.0516V18.9814H26.8195ZM29.83 29.7027C29.353 30.2028 28.6459 30.4674 27.7853 30.4674H26.3889C26.3836 30.4674 26.379 30.4661 26.3737 30.4661C26.3684 30.4661 26.3638 30.4674 26.3585 30.4674H22.0522V25.5916H26.8202H27.786C29.6441 25.5916 30.4762 26.816 30.4762 28.0291C30.4756 28.6721 30.246 29.2661 29.83 29.7027ZM37.6269 11.8148C34.1786 8.36716 29.5945 6.46738 24.718 6.46738C19.8415 6.46738 15.2574 8.3665 11.8091 11.8148C8.36146 15.2625 6.46234 19.8466 6.46234 24.7237C6.46234 29.6002 8.36146 34.1843 11.8091 37.6326C15.3679 41.1914 20.0426 42.9708 24.718 42.9708C29.3927 42.9708 34.0674 41.1914 37.6269 37.6326C41.0752 34.1843 42.9737 29.6002 42.9737 24.7237C42.9737 19.8466 41.0745 15.2625 37.6269 11.8148ZM36.1822 36.1879C29.8604 42.5091 19.5743 42.5084 13.2531 36.1879C10.1911 33.1259 8.50434 29.0544 8.50434 24.7237C8.50434 20.393 10.1911 16.3215 13.2531 13.2595C16.3152 10.1975 20.3873 8.51005 24.718 8.51005C29.0487 8.51005 33.1202 10.1968 36.1822 13.2588C39.2449 16.3215 40.931 20.393 40.931 24.7237C40.931 29.0544 39.2449 33.1259 36.1822 36.1879Z" fill="black"/>
</svg>
