<svg width="48" height="48" viewBox="0 0 48 48" fill="none" xmlns="http://www.w3.org/2000/svg">
<path d="M20.6885 23.171C20.469 23.171 20.2585 23.2582 20.1033 23.4134C19.9481 23.5686 19.8609 23.7791 19.8609 23.9985C19.8609 24.8169 20.1036 25.6169 20.5583 26.2973C21.0129 26.9778 21.6591 27.5081 22.4152 27.8213C23.1713 28.1344 24.0032 28.2164 24.8059 28.0567C25.6085 27.8971 26.3458 27.503 26.9244 26.9243C27.5031 26.3457 27.8972 25.6084 28.0568 24.8058C28.2165 24.0031 28.1345 23.1712 27.8214 22.4151C27.5082 21.659 26.9778 21.0128 26.2974 20.5582C25.617 20.1035 24.817 19.8608 23.9986 19.8608C23.7791 19.8608 23.5687 19.948 23.4135 20.1032C23.2583 20.2584 23.1711 20.4689 23.1711 20.6884C23.1711 20.9079 23.2583 21.1183 23.4135 21.2735C23.5687 21.4287 23.7791 21.5159 23.9986 21.5159C24.4896 21.5159 24.9696 21.6615 25.3779 21.9343C25.7862 22.2071 26.1044 22.5948 26.2923 23.0485C26.4802 23.5021 26.5293 24.0013 26.4335 24.4829C26.3377 24.9644 26.1013 25.4068 25.7541 25.754C25.4069 26.1012 24.9645 26.3377 24.483 26.4334C24.0014 26.5292 23.5022 26.4801 23.0486 26.2922C22.5949 26.1043 22.2072 25.7861 21.9344 25.3778C21.6616 24.9695 21.516 24.4895 21.516 23.9985C21.516 23.7791 21.4288 23.5686 21.2736 23.4134C21.1184 23.2582 20.9079 23.171 20.6885 23.171Z" fill="black"/>
<path d="M23.9986 14.8956C25.2901 14.8959 26.5667 15.1708 27.7438 15.7023C28.9209 16.2337 29.9715 17.0094 30.8258 17.9778C30.971 18.1424 31.1757 18.2426 31.3948 18.2563C31.6138 18.2701 31.8294 18.1962 31.994 18.051C32.1586 17.9058 32.2588 17.7011 32.2725 17.4821C32.2862 17.263 32.2123 17.0474 32.0671 16.8828C30.8554 15.5111 29.3143 14.4705 27.589 13.8593C25.8637 13.2481 24.0112 13.0864 22.2062 13.3895C22.099 13.4075 21.9964 13.4465 21.9043 13.5042C21.8122 13.5619 21.7323 13.6371 21.6693 13.7257C21.542 13.9045 21.4909 14.1266 21.5274 14.343C21.5638 14.5595 21.6847 14.7526 21.8635 14.8799C22.0424 15.0073 22.2645 15.0583 22.4809 15.0219C22.9825 14.9378 23.4901 14.8956 23.9986 14.8956Z" fill="black"/>
<path d="M17.9303 17.2134C18.0914 17.0664 18.188 16.8617 18.1991 16.6438C18.2101 16.4259 18.1346 16.2125 17.9891 16.05C17.8436 15.8875 17.6398 15.789 17.4221 15.7759C17.2043 15.7629 16.9902 15.8363 16.8263 15.9803C15.515 17.1534 14.5115 18.6301 13.9035 20.2812C13.2956 21.9323 13.1019 23.7072 13.3394 25.4505C13.5769 27.1938 14.2384 28.8523 15.2658 30.2805C16.2932 31.7088 17.6553 32.8633 19.2326 33.6428C20.8099 34.4223 22.5543 34.8031 24.313 34.7517C26.0716 34.7004 27.7909 34.2185 29.32 33.3483C30.8491 32.478 32.1415 31.2461 33.0838 29.7603C34.0262 28.2745 34.5897 26.5803 34.7251 24.8261H40.5494C40.7689 24.8261 40.9794 24.7389 41.1345 24.5837C41.2897 24.4285 41.3769 24.218 41.3769 23.9985C41.3874 21.2988 40.7639 18.6342 39.5566 16.2194C38.3494 13.8046 36.5921 11.7069 34.4261 10.0952C34.3394 10.0276 34.2401 9.97799 34.1341 9.94919C34.028 9.92039 33.9172 9.91302 33.8083 9.9275C33.6993 9.94197 33.5943 9.97801 33.4994 10.0335C33.4046 10.089 33.3217 10.1629 33.2557 10.2507C33.1896 10.3386 33.1418 10.4388 33.1149 10.5453C33.088 10.6519 33.0826 10.7628 33.099 10.8715C33.1154 10.9801 33.1533 11.0845 33.2105 11.1783C33.2677 11.2722 33.343 11.3538 33.4321 11.4182C35.2797 12.793 36.8001 14.5598 37.884 16.5918C38.9678 18.6239 39.5883 20.8707 39.7008 23.171H33.9291C33.7096 23.171 33.4991 23.2582 33.3439 23.4134C33.1887 23.5686 33.1015 23.7791 33.1015 23.9985C33.1015 25.517 32.7217 27.0113 31.9966 28.3454C31.2715 29.6796 30.2242 30.8111 28.95 31.637C27.6759 32.463 26.2153 32.9571 24.7014 33.0743C23.1875 33.1915 21.6683 32.9282 20.2822 32.3083C18.8961 31.6883 17.687 30.7315 16.7652 29.5249C15.8433 28.3183 15.238 26.9003 15.0042 25.4C14.7704 23.8996 14.9157 22.3646 15.4268 20.9348C15.9378 19.5049 16.7984 18.2256 17.9303 17.2134Z" fill="black"/>
<path d="M43.4329 36.6489C43.5259 36.705 43.6291 36.7422 43.7365 36.7585C43.8439 36.7747 43.9535 36.7696 44.0589 36.7435C44.1644 36.7174 44.2636 36.6707 44.351 36.6062C44.4384 36.5417 44.5123 36.4606 44.5683 36.3675C47.5767 31.364 48.6581 25.4355 47.6101 19.6921C46.5621 13.9487 43.4566 8.78418 38.8749 5.16564C34.2933 1.54709 28.5498 -0.277352 22.7198 0.0339128C16.8899 0.345178 11.3733 2.77081 7.203 6.85662C7.12537 6.9327 7.06347 7.02331 7.02086 7.12331C6.97824 7.2233 6.95574 7.3307 6.95463 7.43939C6.9524 7.6589 7.03745 7.8703 7.19109 8.0271C7.34472 8.18389 7.55435 8.27323 7.77386 8.27547C7.99336 8.2777 8.20476 8.19265 8.36156 8.03901C12.3265 4.13725 17.6116 1.86608 23.1711 1.67499V6.65082C19.9346 6.80329 16.8051 7.85761 14.1361 9.69471C11.4671 11.5318 9.36493 14.0785 8.06687 17.0473C8.01943 17.1474 7.99258 17.2561 7.98792 17.3668C7.98325 17.4775 8.00088 17.588 8.03974 17.6918C8.0786 17.7956 8.13791 17.8905 8.21415 17.9709C8.29038 18.0513 8.382 18.1156 8.48355 18.16C8.5851 18.2043 8.69453 18.2278 8.80534 18.2291C8.91614 18.2303 9.02607 18.2093 9.12861 18.1673C9.23114 18.1253 9.32419 18.0631 9.40223 17.9844C9.48027 17.9057 9.54172 17.8122 9.58292 17.7093C11.0271 14.4112 13.5575 11.7073 16.7528 10.048C19.9481 8.38864 23.6154 7.87403 27.144 8.58982C27.359 8.63354 27.5827 8.59003 27.7657 8.46885C27.9487 8.34768 28.0761 8.15877 28.1198 7.94368C28.1635 7.72859 28.12 7.50495 27.9988 7.32194C27.8777 7.13894 27.6887 7.01157 27.4737 6.96785C26.6003 6.79838 25.7152 6.69602 24.8262 6.66166V1.67607C28.7086 1.82011 32.4863 2.97394 35.7866 5.02369C39.087 7.07344 41.7958 9.94827 43.6459 13.3645C45.496 16.7808 46.4234 20.6204 46.3366 24.5045C46.2498 28.3885 45.1518 32.1829 43.1509 35.5131C43.0947 35.6061 43.0575 35.7094 43.0413 35.8168C43.025 35.9243 43.0302 36.0339 43.0564 36.1394C43.0826 36.2449 43.1293 36.3442 43.1939 36.4316C43.2585 36.519 43.3397 36.5929 43.4329 36.6489Z" fill="black"/>
<path d="M23.9986 47.9972C30.2815 48.012 36.3167 45.5482 40.7943 41.1405C40.9511 40.9869 41.0404 40.7773 41.0426 40.5578C41.0449 40.3383 40.9598 40.1269 40.8062 39.9701C40.6526 39.8133 40.4429 39.7239 40.2234 39.7217C40.0039 39.7195 39.7925 39.8045 39.6357 39.9582C35.6708 43.8599 30.3856 46.1311 24.8262 46.3222V41.3464C28.0627 41.1939 31.1921 40.1396 33.8611 38.3025C36.5301 36.4654 38.6323 33.9187 39.9304 30.9499C39.9778 30.8498 40.0047 30.7411 40.0094 30.6304C40.014 30.5197 39.9964 30.4091 39.9575 30.3054C39.9187 30.2016 39.8594 30.1067 39.7831 30.0263C39.7069 29.9458 39.6153 29.8815 39.5137 29.8372C39.4122 29.7929 39.3027 29.7694 39.1919 29.7681C39.0811 29.7668 38.9712 29.7879 38.8687 29.8299C38.7661 29.8719 38.6731 29.9341 38.595 30.0128C38.517 30.0915 38.4556 30.185 38.4143 30.2879C37.1894 33.092 35.1732 35.478 32.6127 37.1536C30.0522 38.8293 27.0586 39.7218 23.9986 39.7218C23.7791 39.7218 23.5687 39.809 23.4135 39.9642C23.2583 40.1194 23.1711 40.3299 23.1711 40.5494V46.3211C17.539 46.1059 12.1958 43.7722 8.21041 39.7868C4.22501 35.8014 1.89129 30.4582 1.67609 24.8261H6.65084C6.80336 28.0627 7.85768 31.1922 9.69477 33.8612C11.5319 36.5302 14.0786 38.6325 17.0473 39.9307C17.2484 40.0186 17.4763 40.0229 17.6806 39.9428C17.885 39.8627 18.0492 39.7047 18.1371 39.5036C18.225 39.3024 18.2293 39.0746 18.1492 38.8702C18.0691 38.6659 17.9111 38.5017 17.71 38.4138C14.9057 37.1891 12.5196 35.173 10.8438 32.6126C9.16804 30.0522 8.27545 27.0586 8.27538 23.9986C8.27538 23.7791 8.1882 23.5686 8.033 23.4134C7.87781 23.2582 7.66732 23.171 7.44785 23.171H1.68313C1.8157 19.3984 2.90413 15.7211 4.84639 12.4841C4.95581 12.2963 4.98695 12.073 4.93308 11.8624C4.87921 11.6519 4.74466 11.4709 4.5585 11.3588C4.37234 11.2466 4.14951 11.2121 3.93817 11.2629C3.72682 11.3136 3.54392 11.4455 3.42899 11.6299C1.2406 15.2717 0.0580423 19.429 0.00208266 23.6774C-0.053877 27.9257 1.01877 32.1128 3.11047 35.8109C5.20217 39.509 8.23796 42.5857 11.9078 44.7267C15.5776 46.8677 19.7499 47.9963 23.9986 47.9972Z" fill="black"/>
</svg>
