<svg width="49" height="49" viewBox="0 0 49 49" fill="none" xmlns="http://www.w3.org/2000/svg">
<path d="M20.1232 25.0161C19.9116 28.2574 16.8045 29.0832 14.931 29.0832H14.6006C14.3953 29.0716 14.203 28.9789 14.0661 28.8254C13.9291 28.672 13.8587 28.4705 13.8703 28.2652C13.882 28.0598 13.9747 27.8675 14.1281 27.7306C14.2815 27.5936 14.4831 27.5232 14.6884 27.5348C15.0754 27.547 15.4626 27.5211 15.8445 27.4574C16.789 27.3026 18.0174 26.8535 18.4252 25.62C18.5057 25.3939 18.5544 25.1576 18.5697 24.9181C18.5765 24.8164 18.6032 24.7171 18.6484 24.6257C18.6935 24.5344 18.7562 24.4528 18.8329 24.3857C18.9096 24.3186 18.9988 24.2673 19.0953 24.2347C19.1918 24.202 19.2938 24.1887 19.3955 24.1955C19.4972 24.2023 19.5965 24.229 19.6878 24.2742C19.7792 24.3193 19.8607 24.3821 19.9278 24.4587C19.9949 24.5354 20.0462 24.6246 20.0789 24.7211C20.1115 24.8176 20.1248 24.9196 20.1181 25.0213L20.1232 25.0161ZM22.6316 15.1529C22.6255 14.9476 22.538 14.7531 22.3884 14.6123C22.2389 14.4714 22.0395 14.3958 21.8342 14.4019C21.6289 14.4081 21.4344 14.4956 21.2936 14.6451C21.1527 14.7947 21.0771 14.994 21.0832 15.1994C21.1142 16.2935 19.9219 16.9645 19.2716 17.2639C17.7232 15.989 15.4574 16.1955 15.3542 16.2316C15.1618 16.2597 14.987 16.3592 14.8646 16.5103C14.7422 16.6614 14.6811 16.853 14.6935 17.0471C14.7157 17.2508 14.8167 17.4377 14.9749 17.5679C15.133 17.6981 15.3359 17.7612 15.54 17.7439C15.7617 17.728 15.9842 17.728 16.2058 17.7439C17.0604 17.7456 17.8841 18.0636 18.5181 18.6368C18.7552 18.9305 18.929 19.2702 19.0285 19.6344C19.128 19.9985 19.151 20.3794 19.0961 20.7529C19.0961 20.9387 19.06 21.1348 19.029 21.3413C19.0113 21.4413 19.0135 21.5439 19.0356 21.643C19.0577 21.7422 19.0992 21.836 19.1577 21.919C19.2163 22.002 19.2907 22.0726 19.3767 22.1267C19.4627 22.1808 19.5585 22.2174 19.6587 22.2342C19.7033 22.2393 19.7483 22.2393 19.7929 22.2342C19.9751 22.2331 20.151 22.1678 20.2898 22.0498C20.4285 21.9318 20.5213 21.7686 20.5516 21.589C20.7776 20.5521 20.6785 19.4708 20.2677 18.4923C21.2432 18.0071 22.6884 16.9594 22.6316 15.1632V15.1529ZM19.4006 24.2006C19.1961 24.1879 18.9948 24.2568 18.8409 24.3923C18.6871 24.5277 18.5933 24.7187 18.58 24.9232C18.5647 25.1628 18.5161 25.399 18.4355 25.6252C18.0174 26.8587 16.789 27.3077 15.8548 27.4626C15.4729 27.5262 15.0857 27.5522 14.6987 27.54C14.597 27.5342 14.4952 27.5486 14.3991 27.5821C14.303 27.6157 14.2144 27.6679 14.1384 27.7357C14.0625 27.8036 14.0006 27.8857 13.9564 27.9774C13.9121 28.0691 13.8864 28.1687 13.8806 28.2703C13.8749 28.372 13.8892 28.4738 13.9228 28.5699C13.9564 28.6661 14.0086 28.7546 14.0764 28.8306C14.1442 28.9066 14.2263 28.9684 14.318 29.0127C14.4098 29.0569 14.5093 29.0826 14.611 29.0884H14.9413C16.8148 29.0884 19.9219 28.2626 20.1335 25.0213C20.1398 24.9192 20.1258 24.8168 20.0923 24.7202C20.0587 24.6235 20.0064 24.5344 19.9382 24.4581C19.8701 24.3818 19.7875 24.3198 19.6952 24.2756C19.6029 24.2314 19.5028 24.2059 19.4006 24.2006ZM21.8368 14.3942C21.7337 14.3975 21.6324 14.4213 21.5387 14.4643C21.4449 14.5073 21.3608 14.5686 21.2911 14.6445C21.2213 14.7205 21.1675 14.8096 21.1327 14.9067C21.0979 15.0037 21.0828 15.1067 21.0884 15.2097C21.1194 16.3039 19.9271 16.9748 19.2768 17.2742C17.7284 15.9994 15.4626 16.2058 15.3594 16.2419C15.1679 16.2688 14.9934 16.3663 14.8702 16.5153C14.7469 16.6643 14.6839 16.854 14.6935 17.0471C14.7157 17.2508 14.8167 17.4377 14.9749 17.5679C15.133 17.6981 15.3359 17.7612 15.54 17.7439C15.7617 17.728 15.9842 17.728 16.2058 17.7439C17.0604 17.7456 17.8841 18.0636 18.5181 18.6368C18.7552 18.9305 18.929 19.2702 19.0285 19.6344C19.128 19.9985 19.151 20.3794 19.0961 20.7529C19.0961 20.9387 19.06 21.1348 19.029 21.3413C19.0113 21.4413 19.0135 21.5439 19.0356 21.643C19.0577 21.7422 19.0992 21.836 19.1577 21.919C19.2163 22.002 19.2907 22.0726 19.3767 22.1267C19.4627 22.1808 19.5585 22.2174 19.6587 22.2342C19.7033 22.2393 19.7483 22.2393 19.7929 22.2342C19.9751 22.2331 20.151 22.1678 20.2898 22.0498C20.4285 21.9318 20.5213 21.7686 20.5516 21.589C20.7776 20.5521 20.6785 19.4708 20.2677 18.4923C21.269 17.9761 22.7142 16.9439 22.6574 15.1426C22.6528 15.0402 22.6278 14.9397 22.5839 14.8471C22.5399 14.7545 22.4779 14.6716 22.4014 14.6033C22.325 14.5351 22.2356 14.4827 22.1386 14.4495C22.0417 14.4162 21.939 14.4027 21.8368 14.4097V14.3942ZM38.3529 31.8445C38.3219 32.6032 38.1103 34.7142 36.6755 36.0252C35.9122 36.7097 34.924 37.09 33.8987 37.0935C33.8746 37.9069 33.6082 38.6946 33.1338 39.3557C32.6593 40.0168 31.9983 40.5213 31.2355 40.8045C30.5041 41.1066 29.7197 41.2593 28.9284 41.2535C27.2826 41.2646 25.6961 40.6396 24.5 39.509C23.3025 40.649 21.7094 41.2799 20.0561 41.269C19.2648 41.2748 18.4804 41.1221 17.749 40.82C16.9862 40.5368 16.3252 40.0323 15.8507 39.3712C15.3763 38.7101 15.1099 37.9224 15.0858 37.109C14.0605 37.1054 13.0723 36.7252 12.309 36.0406C10.8742 34.7297 10.6626 32.6187 10.6316 31.86C7.01871 26.8226 9.81613 21.9194 10.6316 20.6755C10.2394 18.3065 10.5645 16.3555 11.5968 14.8742C12.3108 13.8605 13.3311 13.1026 14.5077 12.7116C14.5291 12.164 14.663 11.6266 14.9009 11.1329C15.1389 10.6392 15.4759 10.1998 15.891 9.84194C16.9279 9.09384 18.2087 8.76396 19.4781 8.91806C19.8674 8.53321 20.3293 8.22961 20.837 8.02493C21.3448 7.82025 21.8881 7.71857 22.4355 7.72581C22.8284 7.7148 23.2187 7.79371 23.5765 7.95651C23.9343 8.11931 24.2501 8.36169 24.5 8.66516C24.7499 8.36169 25.0657 8.11931 25.4235 7.95651C25.7813 7.79371 26.1716 7.7148 26.5645 7.72581C27.1162 7.71512 27.6644 7.81512 28.1768 8.0199C28.6892 8.22468 29.1554 8.53008 29.5477 8.91806C30.8171 8.76396 32.0979 9.09384 33.1348 9.84194C33.5499 10.1998 33.8869 10.6392 34.1249 11.1329C34.3628 11.6266 34.4967 12.164 34.5181 12.7116C35.6852 13.1074 36.6959 13.8649 37.4032 14.8742C38.4355 16.3555 38.74 18.3065 38.3323 20.6755C39.1839 21.9194 41.9916 26.8226 38.3684 31.86L38.3529 31.8445ZM23.7258 10.611C23.6897 10.3735 23.4677 9.27419 22.4355 9.27419C21.9487 9.26821 21.4692 9.39298 21.0471 9.63548C21.4966 10.0077 21.8149 10.5142 21.9555 11.0806C22.1877 12.0613 21.811 13.1039 20.8355 14.1774C20.7623 14.2578 20.673 14.3219 20.5734 14.3654C20.4738 14.409 20.3661 14.4311 20.2574 14.4303C20.0668 14.4326 19.8823 14.3625 19.7413 14.2342C19.6658 14.1666 19.6045 14.0847 19.5607 13.9933C19.517 13.9018 19.4918 13.8027 19.4865 13.7015C19.4812 13.6003 19.496 13.499 19.53 13.4036C19.564 13.3081 19.6165 13.2203 19.6845 13.1452C19.8454 12.9695 19.9921 12.7814 20.1232 12.5826C20.2497 12.4232 20.3436 12.2403 20.3994 12.0446C20.4551 11.8489 20.4718 11.6441 20.4484 11.4419C20.3563 11.136 20.1564 10.8738 19.8858 10.7039C19.7762 10.626 19.6605 10.557 19.54 10.4974C19.189 10.451 17.7594 10.3013 16.851 11.0548C16.2884 11.5194 16.0097 12.2832 16.0097 13.3258C16.0086 13.5093 15.9427 13.6866 15.8238 13.8263C15.7048 13.966 15.5403 14.0593 15.3594 14.0897C14.3383 14.327 13.44 14.9313 12.8355 15.7877C12.0252 16.9748 11.8032 18.6265 12.2213 20.6961C12.3455 21.0621 12.5192 21.4094 12.7374 21.7284C12.9175 22.0173 13.1538 22.267 13.4321 22.463C13.7105 22.6589 14.0254 22.797 14.3581 22.869C14.6787 22.9288 15.0077 22.9288 15.3284 22.869C15.5337 22.8355 15.744 22.8849 15.9129 23.0064C16.0818 23.1278 16.1955 23.3114 16.229 23.5168C16.2626 23.7221 16.2132 23.9323 16.0917 24.1012C15.9702 24.2702 15.7866 24.3839 15.5813 24.4174C15.3291 24.4617 15.0735 24.4841 14.8174 24.4845C14.1207 24.4771 13.4378 24.2891 12.8353 23.9391C12.2329 23.589 11.7315 23.0887 11.38 22.4871C10.7544 23.6107 10.4137 24.8705 10.3876 26.1562C10.3615 27.442 10.6508 28.7145 11.2303 29.8626C11.3413 29.7091 11.4714 29.5703 11.6174 29.4497C11.8945 29.2322 12.217 29.0799 12.561 29.0039C12.905 28.928 13.2616 28.9304 13.6045 29.011C13.8098 29.0472 13.9924 29.1636 14.1119 29.3344C14.2314 29.5053 14.2782 29.7166 14.2419 29.9219C14.2057 30.1273 14.0893 30.3098 13.9185 30.4293C13.7476 30.5489 13.5363 30.5956 13.331 30.5594C13.2078 30.5202 13.0773 30.5097 12.9494 30.5284C12.8216 30.5472 12.6996 30.5949 12.5929 30.6677C12.3464 30.9384 12.2038 31.2877 12.1903 31.6535C12.1903 31.731 12.1903 33.8368 13.3774 34.9258C13.9039 35.3859 14.5889 35.6229 15.2871 35.5865C15.4803 34.8201 15.8894 34.1254 16.4658 33.5847C17.0422 33.044 17.7616 32.6801 18.5387 32.5361C18.7468 32.4982 18.9571 32.474 19.1684 32.4639C19.3159 32.3845 19.4296 32.2543 19.4884 32.0974C19.4971 31.8725 19.4195 31.6528 19.2716 31.4832C19.2302 31.4206 19.1854 31.3603 19.1374 31.3026C19.0167 31.1435 18.9622 30.9439 18.9852 30.7455C19.0082 30.5471 19.107 30.3653 19.2609 30.238C19.4148 30.1108 19.6119 30.0479 19.8111 30.0626C20.0103 30.0773 20.1961 30.1683 20.3297 30.3168C20.6074 30.5952 20.8129 30.9374 20.928 31.3134C21.0432 31.6895 21.0646 32.088 20.9903 32.4742C20.9316 32.7142 20.8264 32.9405 20.6806 33.14C20.8984 33.3265 21.0743 33.5569 21.1968 33.8161C21.3177 34.0999 21.3735 34.4071 21.3601 34.7152C21.3467 35.0234 21.2645 35.3246 21.1194 35.5968C21.0561 35.7294 20.9566 35.8415 20.8324 35.92C20.7082 35.9985 20.5644 36.0404 20.4174 36.0406C20.3036 36.039 20.1912 36.0144 20.0871 35.9684C19.9016 35.8801 19.7585 35.722 19.6889 35.5287C19.6193 35.3354 19.6289 35.1224 19.7155 34.9361C19.8652 34.6265 19.8032 34.4871 19.7826 34.42C19.663 34.2237 19.4814 34.073 19.2665 33.9916C17.0781 34.0742 16.7426 36.1542 16.6858 36.3916C16.5598 37.0081 16.6606 37.6494 16.9698 38.1976C17.2789 38.7457 17.7756 39.1637 18.3684 39.3748C19.286 39.7345 20.292 39.8036 21.2502 39.5729C22.2084 39.3421 23.0726 38.8225 23.7258 38.0845V10.611ZM37.6303 22.4819C37.2819 23.0867 36.7824 23.5906 36.1807 23.9443C35.5791 24.2981 34.8959 24.4895 34.1981 24.5C33.942 24.4996 33.6864 24.4772 33.4342 24.4329C33.2289 24.3994 33.0453 24.2856 32.9238 24.1167C32.8023 23.9478 32.7529 23.7376 32.7865 23.5323C32.82 23.3269 32.9337 23.1433 33.1026 23.0219C33.2715 22.9004 33.4818 22.851 33.6871 22.8845C34.0078 22.9443 34.3367 22.9443 34.6574 22.8845C34.9901 22.8125 35.305 22.6744 35.5834 22.4785C35.8617 22.2825 36.098 22.0327 36.2781 21.7439C36.4963 21.4249 36.67 21.0776 36.7942 20.7116C37.1968 18.6471 36.9903 16.9903 36.18 15.8032C35.5749 14.9451 34.6743 14.3404 33.651 14.1052C33.4714 14.0728 33.3087 13.9787 33.1909 13.8393C33.0732 13.6999 33.0077 13.5238 33.0058 13.3413C33.0058 12.309 32.7219 11.5297 32.1594 11.0703C31.2561 10.3219 29.8213 10.4665 29.4755 10.5129C29.3561 10.5745 29.2406 10.6435 29.1297 10.7194C28.8591 10.8893 28.6592 11.1515 28.5671 11.4574C28.5437 11.6596 28.5603 11.8644 28.6161 12.0601C28.6719 12.2558 28.7658 12.4386 28.8923 12.5981C29.0191 12.791 29.1606 12.9739 29.3155 13.1452C29.3843 13.2204 29.4375 13.3085 29.4719 13.4045C29.5064 13.5005 29.5214 13.6023 29.5161 13.7041C29.5108 13.806 29.4853 13.9057 29.4412 13.9976C29.397 14.0895 29.335 14.1717 29.2587 14.2394C29.1177 14.3677 28.9332 14.4378 28.7426 14.4355C28.6335 14.4356 28.5256 14.4127 28.426 14.3682C28.3263 14.3238 28.2372 14.2587 28.1645 14.1774C27.189 13.0935 26.8123 12.051 27.0445 11.0806C27.1874 10.521 27.5058 10.0218 27.9529 9.65613C27.5289 9.41367 27.0478 9.28894 26.5594 9.29484C25.5271 9.29484 25.3103 10.3839 25.2742 10.6316V38.0845C25.9261 38.8292 26.7919 39.3547 27.7534 39.5894C28.7149 39.824 29.7254 39.7563 30.6471 39.3955C31.2399 39.1844 31.7366 38.7663 32.0457 38.2182C32.3548 37.6701 32.4557 37.0288 32.3297 36.4123C32.2987 36.1645 31.9581 34.0948 29.749 34.0123C29.5341 34.0936 29.3525 34.2444 29.2329 34.4406C29.2329 34.4819 29.1503 34.6213 29.3 34.9568C29.3866 35.1431 29.3962 35.3561 29.3266 35.5494C29.257 35.7427 29.1139 35.9007 28.9284 35.989C28.8243 36.0351 28.7119 36.0597 28.5981 36.0613C28.4511 36.061 28.3072 36.0192 28.183 35.9406C28.0588 35.8621 27.9594 35.7501 27.8961 35.6174C27.747 35.3377 27.6643 35.0273 27.6545 34.7105C27.6447 34.3936 27.7079 34.0788 27.8394 33.7903C27.9618 33.5311 28.1377 33.3007 28.3555 33.1142C28.2097 32.9147 28.1045 32.6884 28.0458 32.4484C27.9716 32.0622 27.9929 31.6637 28.1081 31.2876C28.2233 30.9115 28.4287 30.5694 28.7065 30.291C28.8401 30.1425 29.0258 30.0514 29.225 30.0368C29.4242 30.0221 29.6213 30.085 29.7752 30.2122C29.9292 30.3395 30.0279 30.5213 30.0509 30.7197C30.074 30.9181 30.0194 31.1177 29.8987 31.2768C29.8507 31.3345 29.8059 31.3948 29.7645 31.4574C29.6166 31.627 29.539 31.8467 29.5477 32.0716C29.6048 32.2295 29.719 32.3602 29.8677 32.4381C30.079 32.4482 30.2894 32.4723 30.4974 32.5103C31.2745 32.6543 31.9939 33.0182 32.5703 33.5589C33.1467 34.0996 33.5558 34.7943 33.749 35.5606C34.4474 35.5982 35.1328 35.3611 35.6587 34.9C36.8561 33.8161 36.8458 31.7155 36.8458 31.6277C36.8324 31.2619 36.6897 30.9126 36.4432 30.6419C36.3365 30.569 36.2146 30.5214 36.0867 30.5026C35.9588 30.4838 35.8283 30.4944 35.7052 30.5335C35.4998 30.5698 35.2885 30.523 35.1177 30.4035C34.9468 30.284 34.8305 30.1015 34.7942 29.8961C34.7579 29.6908 34.8047 29.4795 34.9242 29.3086C35.0438 29.1378 35.2263 29.0214 35.4316 28.9852C35.7745 28.9046 36.1312 28.9022 36.4751 28.9781C36.8191 29.054 37.1416 29.2064 37.4187 29.4239C37.5661 29.5431 37.6963 29.682 37.8058 29.8368C38.3688 28.6885 38.6468 27.4215 38.6162 26.1431C38.5857 24.8646 38.2475 23.6123 37.6303 22.4923V22.4819ZM35.1271 28.2626C35.137 28.4668 35.0663 28.6667 34.9301 28.8193C34.794 28.9718 34.6034 29.0648 34.3994 29.0781H34.069C32.1955 29.0781 29.0884 28.2523 28.8768 25.011C28.8631 24.8056 28.9315 24.6033 29.067 24.4484C29.2025 24.2935 29.394 24.1988 29.5994 24.1852C29.8047 24.1715 30.007 24.2399 30.1619 24.3754C30.3168 24.5109 30.4115 24.7024 30.4252 24.9077C30.4405 25.1473 30.4891 25.3836 30.5697 25.6097C30.9877 26.8432 32.2161 27.2923 33.1503 27.4471C33.5323 27.5105 33.9195 27.5365 34.3065 27.5245C34.4097 27.519 34.5129 27.534 34.6103 27.5687C34.7076 27.6035 34.7971 27.6572 34.8735 27.7269C34.9498 27.7965 35.0116 27.8807 35.0551 27.9744C35.0987 28.0682 35.1231 28.1696 35.1271 28.2729V28.2626ZM29.2329 22.2497C29.0507 22.2486 28.8748 22.1833 28.736 22.0653C28.5973 21.9473 28.5045 21.7841 28.4742 21.6045C28.2482 20.5676 28.3473 19.4863 28.7581 18.5077C27.7568 17.9916 26.3116 16.9594 26.3684 15.1581C26.369 15.0557 26.3902 14.9546 26.4309 14.8607C26.4716 14.7668 26.5308 14.6822 26.6051 14.6118C26.6793 14.5414 26.7671 14.4867 26.863 14.4511C26.9589 14.4155 27.061 14.3996 27.1632 14.4045C27.2654 14.4078 27.3658 14.4313 27.4588 14.4737C27.5518 14.516 27.6355 14.5764 27.7051 14.6512C27.7747 14.7261 27.8288 14.814 27.8642 14.9098C27.8996 15.0057 27.9158 15.1076 27.9116 15.2097C27.8806 16.3039 29.0729 16.9748 29.7232 17.2742C31.2716 15.9994 33.5323 16.2058 33.6406 16.2419C33.846 16.2625 34.0347 16.3637 34.1654 16.5234C34.2961 16.6831 34.3579 16.8882 34.3374 17.0935C34.3169 17.2989 34.2156 17.4876 34.0559 17.6183C33.8962 17.749 33.6911 17.8109 33.4858 17.7903C33.2642 17.7728 33.0416 17.7728 32.82 17.7903C31.9654 17.7968 31.1427 18.1163 30.5077 18.6884C30.2706 18.9821 30.0968 19.3218 29.9973 19.686C29.8978 20.0502 29.8748 20.431 29.9297 20.8045C29.9297 20.9903 29.9658 21.1865 29.9968 21.3929C30.0145 21.4929 30.0123 21.5955 29.9902 21.6946C29.9681 21.7938 29.9266 21.8876 29.8681 21.9706C29.8095 22.0536 29.7351 22.1242 29.6491 22.1783C29.5631 22.2324 29.4673 22.269 29.3671 22.2858C29.3211 22.2791 29.2761 22.2669 29.2329 22.2497ZM19.4006 24.2006C19.1961 24.1879 18.9948 24.2568 18.8409 24.3923C18.6871 24.5277 18.5933 24.7187 18.58 24.9232C18.5647 25.1628 18.5161 25.399 18.4355 25.6252C18.0174 26.8587 16.789 27.3077 15.8548 27.4626C15.4729 27.5262 15.0857 27.5522 14.6987 27.54C14.597 27.5342 14.4952 27.5486 14.3991 27.5821C14.303 27.6157 14.2144 27.6679 14.1384 27.7357C14.0625 27.8036 14.0006 27.8857 13.9564 27.9774C13.9121 28.0691 13.8864 28.1687 13.8806 28.2703C13.8749 28.372 13.8892 28.4738 13.9228 28.5699C13.9564 28.6661 14.0086 28.7546 14.0764 28.8306C14.1442 28.9066 14.2263 28.9684 14.318 29.0127C14.4098 29.0569 14.5093 29.0826 14.611 29.0884H14.9413C16.8148 29.0884 19.9219 28.2626 20.1335 25.0213C20.1398 24.9192 20.1258 24.8168 20.0923 24.7202C20.0587 24.6235 20.0064 24.5344 19.9382 24.4581C19.8701 24.3818 19.7875 24.3198 19.6952 24.2756C19.6029 24.2314 19.5028 24.2059 19.4006 24.2006ZM22.6316 15.1632C22.6286 15.0616 22.6055 14.9615 22.5638 14.8687C22.5221 14.776 22.4625 14.6923 22.3884 14.6226C22.3144 14.5529 22.2273 14.4984 22.1322 14.4623C22.0371 14.4262 21.9359 14.4092 21.8342 14.4123C21.7325 14.4153 21.6325 14.4384 21.5397 14.4801C21.4469 14.5218 21.3633 14.5814 21.2936 14.6554C21.2238 14.7295 21.1694 14.8165 21.1333 14.9116C21.0972 15.0067 21.0802 15.108 21.0832 15.2097C21.1142 16.3039 19.9219 16.9748 19.2716 17.2742C17.7232 15.9994 15.4574 16.2058 15.3542 16.2419C15.1637 16.2699 14.9904 16.3679 14.8682 16.5168C14.7461 16.6657 14.6838 16.8548 14.6935 17.0471C14.7157 17.2508 14.8167 17.4377 14.9749 17.5679C15.133 17.6981 15.3359 17.7612 15.54 17.7439C15.7617 17.728 15.9842 17.728 16.2058 17.7439C17.0604 17.7456 17.8841 18.0636 18.5181 18.6368C18.7552 18.9305 18.929 19.2702 19.0285 19.6344C19.128 19.9985 19.151 20.3794 19.0961 20.7529C19.0961 20.9387 19.06 21.1348 19.029 21.3413C19.0113 21.4413 19.0135 21.5439 19.0356 21.643C19.0577 21.7422 19.0992 21.836 19.1577 21.919C19.2163 22.002 19.2907 22.0726 19.3767 22.1267C19.4627 22.1808 19.5585 22.2174 19.6587 22.2342C19.7033 22.2393 19.7483 22.2393 19.7929 22.2342C19.9751 22.2331 20.151 22.1678 20.2898 22.0498C20.4285 21.9318 20.5213 21.7686 20.5516 21.589C20.7776 20.5521 20.6785 19.4708 20.2677 18.4923C21.2432 18.0071 22.6884 16.9594 22.6316 15.1632ZM29.3413 22.2342C29.4415 22.2174 29.5373 22.1808 29.6233 22.1267C29.7093 22.0726 29.7837 22.002 29.8423 21.919C29.9008 21.836 29.9423 21.7422 29.9644 21.643C29.9865 21.5439 29.9887 21.4413 29.971 21.3413C29.94 21.1348 29.9194 20.9387 29.9039 20.7529C29.849 20.3794 29.872 19.9985 29.9715 19.6344C30.071 19.2702 30.2448 18.9305 30.4819 18.6368C31.1169 18.0647 31.9395 17.7452 32.7942 17.7387C33.0158 17.7212 33.2384 17.7212 33.46 17.7387C33.6653 17.7592 33.8704 17.6974 34.0301 17.5667C34.1898 17.436 34.2911 17.2473 34.3116 17.0419C34.3321 16.8366 34.2703 16.6315 34.1396 16.4718C34.0089 16.3121 33.8202 16.2109 33.6148 16.1903C33.5065 16.1903 31.2355 15.9735 29.6974 17.2226C29.0471 16.9387 27.8548 16.2677 27.8858 15.1581C27.8893 15.0564 27.8726 14.955 27.8369 14.8598C27.8011 14.7645 27.7469 14.6772 27.6774 14.6029C27.6079 14.5286 27.5245 14.4688 27.4318 14.4268C27.3391 14.3847 27.2391 14.3614 27.1374 14.3581C27.0352 14.3532 26.9331 14.369 26.8372 14.4047C26.7413 14.4403 26.6535 14.4949 26.5793 14.5653C26.505 14.6357 26.4458 14.7204 26.4051 14.8143C26.3644 14.9082 26.3432 15.0093 26.3426 15.1116C26.2858 16.9077 27.731 17.9555 28.7323 18.4613C28.3215 19.4398 28.2224 20.5212 28.4484 21.5581C28.4787 21.7377 28.5715 21.9008 28.7102 22.0188C28.849 22.1368 29.0249 22.2021 29.2071 22.2032C29.2588 22.2209 29.3126 22.2313 29.3671 22.2342H29.3413ZM34.3065 27.54C33.9195 27.552 33.5323 27.526 33.1503 27.4626C32.2058 27.3077 30.9774 26.8587 30.5697 25.6252C30.4891 25.399 30.4405 25.1628 30.4252 24.9232C30.4184 24.8216 30.3916 24.7222 30.3465 24.6309C30.3013 24.5395 30.2386 24.458 30.1619 24.3909C30.0852 24.3238 29.9961 24.2725 29.8996 24.2398C29.803 24.2072 29.701 24.1939 29.5994 24.2006C29.4977 24.2074 29.3983 24.2342 29.307 24.2793C29.2157 24.3245 29.1341 24.3872 29.067 24.4639C28.9999 24.5406 28.9486 24.6297 28.916 24.7263C28.8833 24.8228 28.87 24.9248 28.8768 25.0265C29.0884 28.2677 32.1955 29.0935 34.069 29.0935H34.3994C34.6047 29.0819 34.797 28.9892 34.9339 28.8358C35.0709 28.6824 35.1413 28.4808 35.1297 28.2755C35.118 28.0702 35.0253 27.8779 34.8719 27.7409C34.7185 27.6039 34.5169 27.5335 34.3116 27.5452L34.3065 27.54ZM34.3065 27.54C33.9195 27.552 33.5323 27.526 33.1503 27.4626C32.2058 27.3077 30.9774 26.8587 30.5697 25.6252C30.4891 25.399 30.4405 25.1628 30.4252 24.9232C30.4184 24.8216 30.3916 24.7222 30.3465 24.6309C30.3013 24.5395 30.2386 24.458 30.1619 24.3909C30.0852 24.3238 29.9961 24.2725 29.8996 24.2398C29.803 24.2072 29.701 24.1939 29.5994 24.2006C29.4977 24.2074 29.3983 24.2342 29.307 24.2793C29.2157 24.3245 29.1341 24.3872 29.067 24.4639C28.9999 24.5406 28.9486 24.6297 28.916 24.7263C28.8833 24.8228 28.87 24.9248 28.8768 25.0265C29.0884 28.2677 32.1955 29.0935 34.069 29.0935H34.3994C34.6047 29.0819 34.797 28.9892 34.9339 28.8358C35.0709 28.6824 35.1413 28.4808 35.1297 28.2755C35.118 28.0702 35.0253 27.8779 34.8719 27.7409C34.7185 27.6039 34.5169 27.5335 34.3116 27.5452L34.3065 27.54ZM33.6355 16.1852C33.5271 16.1852 31.2561 15.9684 29.7181 17.2174C29.0677 16.9335 27.8755 16.2626 27.9065 15.1529C27.9099 15.0512 27.8933 14.9499 27.8575 14.8546C27.8218 14.7594 27.7676 14.6721 27.6981 14.5978C27.6286 14.5235 27.5451 14.4636 27.4524 14.4216C27.3598 14.3796 27.2598 14.3562 27.1581 14.3529C27.0559 14.348 26.9537 14.3639 26.8578 14.3995C26.7619 14.4351 26.6742 14.4898 26.5999 14.5602C26.5257 14.6305 26.4664 14.7152 26.4258 14.8091C26.3851 14.903 26.3638 15.0041 26.3632 15.1065C26.3065 16.9026 27.7516 17.9503 28.7529 18.4561C28.3422 19.4347 28.243 20.516 28.469 21.5529C28.4994 21.7325 28.5921 21.8957 28.7309 22.0137C28.8696 22.1317 29.0456 22.197 29.2277 22.1981C29.2723 22.2031 29.3173 22.2031 29.3619 22.1981C29.4621 22.1812 29.558 22.1447 29.644 22.0906C29.7299 22.0365 29.8044 21.9659 29.8629 21.8829C29.9215 21.7999 29.963 21.7061 29.9851 21.6069C30.0072 21.5077 30.0094 21.4052 29.9916 21.3052C29.9606 21.0987 29.94 20.9026 29.9245 20.7168C29.8696 20.3433 29.8926 19.9624 29.9921 19.5982C30.0916 19.234 30.2654 18.8944 30.5026 18.6006C31.1376 18.0286 31.9602 17.7091 32.8148 17.7026C33.0364 17.6851 33.2591 17.6851 33.4806 17.7026C33.686 17.7231 33.891 17.6612 34.0508 17.5306C34.2105 17.3999 34.3117 17.2111 34.3323 17.0058C34.3528 16.8005 34.2909 16.5954 34.1602 16.4357C34.0296 16.276 33.8408 16.1747 33.6355 16.1542V16.1852ZM24.5 5.60452C24.2947 5.60452 24.0978 5.52295 23.9526 5.37776C23.8074 5.23257 23.7258 5.03565 23.7258 4.83032V1.27419C23.7258 1.06886 23.8074 0.871946 23.9526 0.726756C24.0978 0.581567 24.2947 0.5 24.5 0.5C24.7053 0.5 24.9022 0.581567 25.0474 0.726756C25.1926 0.871946 25.2742 1.06886 25.2742 1.27419V4.83032C25.2742 5.03565 25.1926 5.23257 25.0474 5.37776C24.9022 5.52295 24.7053 5.60452 24.5 5.60452ZM13.9916 7.84968L12.2161 4.7529C12.1135 4.57495 12.0857 4.3635 12.1389 4.16508C12.1922 3.96665 12.322 3.7975 12.5 3.69484C12.678 3.59217 12.8894 3.56441 13.0878 3.61764C13.2862 3.67088 13.4554 3.80076 13.5581 3.97871L15.3335 7.07548C15.3844 7.16358 15.4175 7.26085 15.4307 7.36172C15.444 7.46259 15.4373 7.56509 15.4109 7.66335C15.3846 7.76162 15.3391 7.85373 15.2771 7.9344C15.2151 8.01508 15.1378 8.08276 15.0497 8.13355C14.9323 8.20226 14.7986 8.23792 14.6626 8.23677C14.5266 8.23686 14.393 8.20113 14.2752 8.13318C14.1574 8.06522 14.0596 7.96744 13.9916 7.84968ZM8.13355 15.0755C8.06556 15.1932 7.96775 15.291 7.84996 15.359C7.73217 15.4269 7.59856 15.4627 7.46258 15.4626C7.3266 15.4637 7.19284 15.4281 7.07548 15.3594L3.97871 13.5839C3.80076 13.4812 3.67088 13.3121 3.61764 13.1136C3.56441 12.9152 3.59217 12.7038 3.69484 12.5258C3.7975 12.3479 3.96665 12.218 4.16508 12.1647C4.3635 12.1115 4.57495 12.1393 4.7529 12.2419L7.84968 14.0174C8.02085 14.1198 8.14591 14.2843 8.19879 14.4766C8.25168 14.6689 8.22831 14.8742 8.13355 15.0497V15.0755ZM0.5 24.5C0.5 24.2947 0.581567 24.0978 0.726756 23.9526C0.871946 23.8074 1.06886 23.7258 1.27419 23.7258H4.83032C5.03565 23.7258 5.23257 23.8074 5.37776 23.9526C5.52295 24.0978 5.60452 24.2947 5.60452 24.5C5.60452 24.7053 5.52295 24.9022 5.37776 25.0474C5.23257 25.1926 5.03565 25.2742 4.83032 25.2742H1.27419C1.06886 25.2742 0.871946 25.1926 0.726756 25.0474C0.581567 24.9022 0.5 24.7053 0.5 24.5ZM8.13355 33.9503C8.22831 34.1258 8.25168 34.3311 8.19879 34.5234C8.14591 34.7157 8.02085 34.8802 7.84968 34.9826L4.7529 36.7581C4.63967 36.835 4.50764 36.8796 4.37097 36.8871C4.20038 36.8873 4.03451 36.8311 3.89912 36.7274C3.76373 36.6236 3.66641 36.478 3.62227 36.3132C3.57814 36.1484 3.58966 35.9737 3.65505 35.8161C3.72044 35.6586 3.83603 35.527 3.98387 35.4419L7.08064 33.6665C7.2581 33.5653 7.46834 33.5384 7.66556 33.5916C7.86277 33.6447 8.03099 33.7737 8.13355 33.9503ZM15.0497 40.8664C15.1378 40.9172 15.2151 40.9849 15.2771 41.0656C15.3391 41.1463 15.3846 41.2384 15.4109 41.3366C15.4373 41.4349 15.444 41.5374 15.4307 41.6383C15.4175 41.7392 15.3844 41.8364 15.3335 41.9245L13.5581 45.0213C13.4901 45.1391 13.3923 45.2368 13.2745 45.3048C13.1567 45.3727 13.0231 45.4085 12.8871 45.4084C12.7511 45.4095 12.6174 45.3739 12.5 45.3052C12.3288 45.2028 12.2038 45.0383 12.1509 44.846C12.098 44.6537 12.1214 44.4484 12.2161 44.2729L13.9916 41.1761C14.0402 41.0858 14.1063 41.006 14.186 40.9415C14.2657 40.8769 14.3574 40.8288 14.4559 40.8C14.5543 40.7712 14.6575 40.7622 14.7594 40.7736C14.8614 40.785 14.96 40.8166 15.0497 40.8664ZM33.9503 8.13355C33.8622 8.08276 33.7849 8.01508 33.7229 7.9344C33.6609 7.85373 33.6154 7.76162 33.5891 7.66335C33.5627 7.56509 33.556 7.46259 33.5693 7.36172C33.5825 7.26085 33.6156 7.16358 33.6665 7.07548L35.4419 3.97871C35.5446 3.80076 35.7137 3.67088 35.9122 3.61764C36.1106 3.56441 36.322 3.59217 36.5 3.69484C36.678 3.7975 36.8078 3.96665 36.8611 4.16508C36.9143 4.3635 36.8865 4.57495 36.7839 4.7529L35.0084 7.84968C34.9404 7.96744 34.8426 8.06522 34.7248 8.13318C34.607 8.20113 34.4734 8.23686 34.3374 8.23677C34.2014 8.23792 34.0677 8.20226 33.9503 8.13355ZM45.0006 13.5581L41.9039 15.3335C41.7865 15.4023 41.6528 15.4379 41.5168 15.4368C41.3462 15.437 41.1803 15.3808 41.0449 15.277C40.9095 15.1733 40.8122 15.0277 40.7681 14.8629C40.7239 14.6981 40.7355 14.5234 40.8009 14.3658C40.8662 14.2083 40.9818 14.0767 41.1297 13.9916L44.2265 12.2161C44.3146 12.1653 44.4118 12.1323 44.5127 12.1191C44.6135 12.1058 44.716 12.1126 44.8143 12.1389C44.9125 12.1653 45.0046 12.2107 45.0853 12.2727C45.166 12.3346 45.2337 12.4119 45.2845 12.5C45.3353 12.5881 45.3683 12.6854 45.3816 12.7862C45.3948 12.8871 45.3881 12.9896 45.3617 13.0878C45.3354 13.1861 45.2899 13.2782 45.2279 13.3589C45.166 13.4395 45.0888 13.5072 45.0006 13.5581ZM48.5 24.5C48.5 24.7053 48.4184 24.9022 48.2732 25.0474C48.1281 25.1926 47.9311 25.2742 47.7258 25.2742H44.1697C43.9643 25.2742 43.7674 25.1926 43.6222 25.0474C43.477 24.9022 43.3955 24.7053 43.3955 24.5C43.3955 24.2947 43.477 24.0978 43.6222 23.9526C43.7674 23.8074 43.9643 23.7258 44.1697 23.7258H47.7258C47.9311 23.7258 48.1281 23.8074 48.2732 23.9526C48.4184 24.0978 48.5 24.2947 48.5 24.5ZM41.9245 33.6665L45.0213 35.4419C45.1695 35.5273 45.2853 35.6593 45.3506 35.8173C45.4159 35.9754 45.4271 36.1507 45.3823 36.3157C45.3375 36.4808 45.2393 36.6264 45.103 36.7297C44.9667 36.8331 44.8001 36.8884 44.629 36.8871C44.493 36.8882 44.3593 36.8526 44.2419 36.7839L41.1452 35.0084C41.057 34.9576 40.9798 34.8899 40.9179 34.8092C40.8559 34.7285 40.8105 34.6364 40.7841 34.5381C40.7577 34.4399 40.751 34.3374 40.7642 34.2366C40.7775 34.1357 40.8105 34.0384 40.8613 33.9503C40.9121 33.8622 40.9798 33.785 41.0605 33.723C41.1412 33.6611 41.2333 33.6156 41.3315 33.5893C41.4298 33.5629 41.5323 33.5561 41.6331 33.5694C41.734 33.5826 41.8312 33.6156 41.9194 33.6665H41.9245ZM24.5 43.3955C24.7053 43.3955 24.9022 43.477 25.0474 43.6222C25.1926 43.7674 25.2742 43.9643 25.2742 44.1697V47.7258C25.2742 47.9311 25.1926 48.1281 25.0474 48.2732C24.9022 48.4184 24.7053 48.5 24.5 48.5C24.2947 48.5 24.0978 48.4184 23.9526 48.2732C23.8074 48.1281 23.7258 47.9311 23.7258 47.7258V44.1697C23.7258 43.9643 23.8074 43.7674 23.9526 43.6222C24.0978 43.477 24.2947 43.3955 24.5 43.3955ZM35.0084 41.1503L36.7839 44.2471C36.8786 44.4226 36.902 44.6279 36.8491 44.8202C36.7962 45.0125 36.6712 45.177 36.5 45.2794C36.3826 45.3481 36.2489 45.3837 36.1129 45.3826C35.9769 45.3827 35.8433 45.3469 35.7255 45.279C35.6077 45.211 35.5099 45.1132 35.4419 44.9955L33.6665 41.8987C33.5638 41.7208 33.536 41.5093 33.5893 41.3109C33.6425 41.1125 33.7724 40.9433 33.9503 40.8406C34.1283 40.738 34.3397 40.7102 34.5381 40.7634C34.7366 40.8167 34.9057 40.9466 35.0084 41.1245V41.1503Z" fill="black"/>
</svg>
