<svg width="48" height="48" viewBox="0 0 48 48" fill="none" xmlns="http://www.w3.org/2000/svg">
<path d="M27.264 12.3169H29.0201C29.5048 12.3169 29.8982 11.9241 29.8982 11.4388C29.8982 10.9536 29.5048 10.5608 29.0201 10.5608H27.264C26.7793 10.5608 26.386 10.9536 26.386 11.4388C26.386 11.9241 26.7793 12.3169 27.264 12.3169Z" fill="black"/>
<path d="M20.825 12.3169H22.5811C23.0663 12.3169 23.4591 11.9241 23.4591 11.4388C23.4591 10.9536 23.0663 10.5608 22.5811 10.5608H20.825C20.3397 10.5608 19.9469 10.9536 19.9469 11.4388C19.9469 11.9241 20.3403 12.3169 20.825 12.3169Z" fill="black"/>
<path d="M14.386 12.3169H16.1421C16.6273 12.3169 17.0201 11.9241 17.0201 11.4388C17.0201 10.9536 16.6273 10.5608 16.1421 10.5608H14.386C13.9007 10.5608 13.5079 10.9536 13.5079 11.4388C13.5079 11.9241 13.9013 12.3169 14.386 12.3169Z" fill="black"/>
<path d="M15.264 23.8297V22.0736C15.264 21.5883 14.8712 21.1956 14.386 21.1956C13.9007 21.1956 13.5079 21.5883 13.5079 22.0736V23.8297C13.5079 24.315 13.9007 24.7078 14.386 24.7078C14.8712 24.7078 15.264 24.3144 15.264 23.8297Z" fill="black"/>
<path d="M14.386 18.2688C14.8712 18.2688 15.264 17.876 15.264 17.3907V15.6346C15.264 15.1494 14.8712 14.7566 14.386 14.7566C13.9007 14.7566 13.5079 15.1494 13.5079 15.6346V17.3907C13.5079 17.8754 13.9013 18.2688 14.386 18.2688Z" fill="black"/>
<path d="M47.1219 10.5608H34.4921V1.21716C34.4921 0.731892 34.0987 0.339111 33.614 0.339111H0.878049C0.39278 0.339111 0 0.731892 0 1.21716V36.8449C0 37.1984 0.211317 37.5163 0.53678 37.6538C0.646829 37.7007 0.762732 37.7229 0.878049 37.7229C1.10283 37.7229 1.32351 37.6369 1.49093 37.4735L10.9499 28.2599H12.9454H13.5079V37.6029C13.5079 38.0876 13.9007 38.481 14.386 38.481H37.0507L46.5091 47.6946C46.6765 47.8574 46.8972 47.944 47.1219 47.944C47.2373 47.944 47.3532 47.9212 47.4632 47.8749C47.7887 47.7379 48 47.4195 48 47.0659V11.4388C48 10.9536 47.6066 10.5608 47.1219 10.5608ZM10.5928 26.5038C10.3639 26.5038 10.1438 26.5928 9.9799 26.7532L1.7561 34.7639V2.09462H32.736V9.30809C32.736 9.31394 32.7342 9.31921 32.7342 9.32506V11.4359V11.4376V11.4394L32.736 26.5026H30.151H28.3949H23.712H21.9559H17.273H15.5169H14.3865H12.9454H10.5928V26.5038ZM46.2439 44.9844L38.0201 36.9742C37.8562 36.8144 37.6361 36.7249 37.4072 36.7249H15.264V28.2599H15.5169H17.273H21.9559H23.712H28.3949H30.151H33.614C33.8464 28.2599 34.07 28.1674 34.2351 28.0029C34.4002 27.8384 34.4921 27.6148 34.4921 27.3818V26.1631V26.1619V24.4058C34.4921 24.4058 34.4921 24.4041 34.4921 24.4029L34.4915 19.7299C34.4915 19.7276 34.4921 19.7253 34.4921 19.7229V17.9668C34.4921 17.9639 34.4909 17.961 34.4909 17.958V13.2974C34.4909 13.2933 34.4921 13.2886 34.4921 13.2845V12.3175H46.2439V44.9844Z" fill="black"/>
<path d="M20.3028 21.0341C20.3128 21.0464 20.3227 21.0587 20.3333 21.0704L23.3298 24.6406C23.4966 24.8396 23.743 24.9543 24.0023 24.9537C24.2617 24.9537 24.5081 24.8396 24.6749 24.6406L27.6539 21.0897C27.6761 21.0657 27.6966 21.0411 27.7159 21.0154L29.2027 19.2441C29.208 19.2388 29.2133 19.2329 29.2174 19.2271C30.3729 17.8486 30.192 15.7863 28.8146 14.6296C28.2281 14.1373 27.4841 13.8657 26.7184 13.8657C25.7502 13.8657 24.8382 14.2907 24.2172 15.0318L24.0018 15.2882L23.7863 15.0318C23.1647 14.2907 22.2527 13.8657 21.2839 13.8657C20.5182 13.8657 19.7737 14.1367 19.1865 14.629C18.5186 15.1898 18.1095 15.9766 18.0334 16.8452C17.9579 17.7139 18.2248 18.5598 18.7867 19.23L20.3028 21.0341ZM20.3151 15.9736C20.9344 15.4532 21.9231 15.5428 22.4406 16.1598L23.3292 17.2181C23.6628 17.6162 24.3407 17.6156 24.6743 17.2181L25.5623 16.1598C26.0757 15.5481 27.0708 15.4573 27.6849 15.9736C28.3177 16.5051 28.4043 17.4493 27.8816 18.0862C27.8775 18.0909 27.8734 18.0956 27.8693 18.1003L26.3438 19.9178C26.3344 19.9284 26.3262 19.9383 26.318 19.9494L24.0018 22.71L21.6679 19.9295C21.6656 19.9266 21.6632 19.9237 21.6609 19.9213L20.1301 18.0979C19.8714 17.7894 19.7479 17.3984 19.783 16.9974C19.8176 16.5959 20.0072 16.2324 20.3151 15.9736Z" fill="black"/>
</svg>
